<svg width="18" height="18" viewBox="0 0 18 18" fill="none" xmlns="http://www.w3.org/2000/svg">
<path d="M16 18H7C6.47013 17.9982 5.96244 17.7869 5.58777 17.4122C5.2131 17.0375 5.00184 16.5299 5 16V12H7V16H16V2H7V6H5V2C5.00184 1.47013 5.2131 0.962496 5.58777 0.587822C5.96244 0.213148 6.47013 0.00184486 7 0H16C16.5299 0.00184486 17.0376 0.213148 17.4122 0.587822C17.7869 0.962496 17.9982 1.47013 18 2V16C17.9982 16.5299 17.7869 17.0375 17.4122 17.4122C17.0376 17.7869 16.5299 17.9982 16 18ZM9 13V10H0V8H9V5L14 9L9 13Z" fill="black"/>
</svg>
