<svg width="25" height="24" viewBox="0 0 25 24" fill="none" xmlns="http://www.w3.org/2000/svg">
<path fill-rule="evenodd" clip-rule="evenodd" d="M0 12.0698C0.00544585 14.9147 1.00958 17.6678 2.83716 19.8481C4.66473 22.0284 7.19974 23.4977 10 23.9999V15.33H7V11.9999H10V9.33003C9.95095 8.70472 10.0381 8.07606 10.2556 7.48774C10.4731 6.89943 10.8156 6.36536 11.2596 5.92231C11.7036 5.47927 12.2385 5.13805 12.8273 4.92182C13.4161 4.7056 14.0448 4.61948 14.67 4.66987C15.5618 4.69185 16.4508 4.779 17.33 4.93013V7.99995H15.8C14.33 7.99995 14 8.72987 14 9.66987V11.9999H17.2L16.67 15.33H14V23.9999C16.2767 23.6327 18.4007 22.6214 20.1208 21.0854C21.841 19.5494 23.0854 17.5532 23.707 15.3325C24.3286 13.1117 24.3014 10.759 23.6285 8.55317C22.9557 6.34739 21.6653 4.38046 19.91 2.88472C18.1548 1.38897 16.008 0.427123 13.7234 0.112742C11.4388 -0.201639 9.11198 0.144747 7.01794 1.11079C4.92391 2.07683 3.15025 3.62234 1.90662 5.5644C0.662986 7.50646 0.00135217 9.76365 0 12.0698Z" fill="white"/>
</svg>
