<svg width="20" height="19" viewBox="0 0 20 19" fill="none" xmlns="http://www.w3.org/2000/svg">
<path d="M18 4.00001H14V2.00001C14.0009 1.73711 13.9499 1.47672 13.8497 1.23365C13.7495 0.990586 13.6022 0.769654 13.4163 0.583753C13.2304 0.397851 13.0096 0.250585 12.7665 0.150403C12.5234 0.0502212 12.2629 -0.000912696 12 1.23296e-05H8.00001C7.73711 -0.000912696 7.4766 0.0502212 7.23353 0.150403C6.99046 0.250585 6.76965 0.397851 6.58375 0.583753C6.39785 0.769654 6.25052 0.990586 6.15034 1.23365C6.05016 1.47672 5.99909 1.73711 6.00001 2.00001V4.00001H2.00001C1.73765 3.99934 1.47776 4.05074 1.23536 4.15114C0.992971 4.25153 0.772895 4.39899 0.587842 4.58497C0.402789 4.77096 0.256419 4.99174 0.157239 5.23463C0.0580585 5.47752 0.00803867 5.73766 0.0100221 6.00001L1.2344e-05 17C-0.000912681 17.2629 0.0501602 17.5233 0.150342 17.7664C0.250524 18.0094 0.397851 18.2304 0.583753 18.4163C0.769654 18.6022 0.990464 18.7494 1.23353 18.8496C1.4766 18.9498 1.73711 19.0009 2.00001 19H18C18.2629 19.0009 18.5234 18.9498 18.7665 18.8496C19.0096 18.7494 19.2304 18.6022 19.4163 18.4163C19.6022 18.2304 19.7495 18.0094 19.8497 17.7664C19.9499 17.5233 20.0009 17.2629 20 17V6.00001C20.0009 5.73711 19.9499 5.47672 19.8497 5.23365C19.7495 4.99059 19.6022 4.76965 19.4163 4.58375C19.2304 4.39785 19.0096 4.25058 18.7665 4.1504C18.5234 4.05022 18.2629 3.99909 18 4.00001ZM8.00001 2.00001H12V4.00001H8.00001V2.00001ZM18 17H2.00001V6.00001H18V17Z" fill="black"/>
</svg>
