<svg width="23" height="23" viewBox="0 0 23 23" fill="none" xmlns="http://www.w3.org/2000/svg">
<path d="M22.53 9.29964H21.62V9.24984H11.5V13.7498H17.86C17.3789 15.1159 16.4716 16.2911 15.2719 17.1024C14.0721 17.9136 12.6435 18.3181 11.1965 18.2557C9.7496 18.1933 8.36094 17.6672 7.23548 16.7557C6.11002 15.8442 5.30723 14.5951 4.94556 13.1927C4.5839 11.7903 4.68254 10.3088 5.22681 8.96664C5.77109 7.62451 6.73221 6.49299 7.96851 5.73861C9.20482 4.98423 10.6508 4.64733 12.0933 4.77718C13.5357 4.90703 14.8983 5.49676 15.98 6.4598L19.16 3.27962C17.2677 1.52217 14.8278 0.470198 12.2509 0.30062C9.67392 0.131042 7.11727 0.854634 5.01099 2.34896C2.90472 3.84329 1.37734 6.01742 0.686043 8.5057C-0.00525412 10.994 0.181728 13.6444 1.21534 16.0111C2.24895 18.3777 4.06609 20.3158 6.36121 21.4998C8.65633 22.6838 11.2892 23.0415 13.8169 22.512C16.3446 21.9825 18.6128 20.5982 20.2398 18.5926C21.8667 16.587 22.7532 14.0824 22.75 11.4998C22.7481 10.7611 22.6745 10.0241 22.53 9.29964Z" fill="white"/>
<path d="M1.55005 6.25979L5.23999 8.97024C5.6445 7.96725 6.28439 7.07631 7.10559 6.37258C7.9268 5.66885 8.90526 5.1729 9.95837 4.92678C11.0115 4.68066 12.1083 4.69115 13.1564 4.95803C14.2044 5.22491 15.1728 5.74016 15.98 6.45998L19.16 3.27981C17.898 2.09838 16.3801 1.22488 14.7247 0.726583C13.0694 0.228286 11.3212 0.118808 9.6167 0.407247C7.91219 0.695687 6.29744 1.37398 4.89819 2.38918C3.49895 3.40439 2.35311 4.7289 1.55005 6.25979Z" fill="white"/>
<path d="M11.5 22.75C14.2899 22.7531 16.9799 21.7114 19.04 19.8301L15.5601 16.8799C14.7174 17.5197 13.7356 17.9517 12.6947 18.1411C11.6538 18.3305 10.5829 18.2722 9.56885 17.9702C8.55482 17.6682 7.62628 17.1313 6.85852 16.4033C6.09076 15.6753 5.50543 14.7763 5.15002 13.7798L1.47998 16.6099C2.42322 18.4564 3.85788 20.007 5.62585 21.0903C7.39382 22.1737 9.4265 22.748 11.5 22.75Z" fill="white"/>
<path d="M22.53 9.2998H21.62V9.25H11.5V13.75H17.86C17.4178 14.9968 16.6179 16.0854 15.5601 16.8799L19.04 19.8301C20.2241 18.7926 21.1691 17.5104 21.8096 16.0723C22.4501 14.6341 22.7709 13.0742 22.75 11.5C22.7481 10.7613 22.6745 10.0243 22.53 9.2998Z" fill="white"/>
</svg>
