<svg width="53" height="53" viewBox="0 0 53 53" fill="none" xmlns="http://www.w3.org/2000/svg">
<path d="M52.094 26.5C52.0948 21.4378 50.5944 16.4892 47.7826 12.2798C44.9708 8.07033 40.9738 4.78931 36.2972 2.85155C31.6206 0.913787 26.4743 0.405955 21.5093 1.39305C16.5443 2.38015 11.9835 4.81773 8.40373 8.39696C4.82395 11.9762 2.38596 16.5366 1.39809 21.5015C0.410215 26.4663 0.916837 31.6126 2.85387 36.2895C4.7909 40.9665 8.07134 44.9639 12.2803 47.7764C16.4893 50.5888 21.4378 52.0898 26.5 52.0898C33.2872 52.0896 39.7964 49.3936 44.596 44.5947C49.3956 39.7958 52.0927 33.2872 52.094 26.5ZM25.928 37.7402C25.7444 37.5586 25.5985 37.3421 25.4985 37.104C25.3986 36.8659 25.3466 36.6103 25.3456 36.352C25.3446 36.0938 25.3945 35.838 25.4926 35.5991C25.5906 35.3602 25.7349 35.143 25.917 34.9599L32.355 28.4702H15.918C15.3955 28.4702 14.8945 28.2625 14.525 27.8931C14.1556 27.5236 13.948 27.0225 13.948 26.5C13.948 25.9775 14.1556 25.4764 14.525 25.1069C14.8945 24.7375 15.3955 24.5298 15.918 24.5298H32.355L25.917 18.04C25.7341 17.8573 25.5899 17.6395 25.493 17.3999C25.3949 17.1621 25.3449 16.9072 25.346 16.6499C25.3453 16.391 25.3966 16.1347 25.4967 15.896C25.5968 15.6572 25.7438 15.4407 25.929 15.2598C26.1138 15.0775 26.3313 14.9319 26.57 14.8301C26.811 14.7387 27.0663 14.6911 27.324 14.6899C27.5828 14.6896 27.8391 14.7405 28.078 14.8398C28.3158 14.9414 28.5319 15.0875 28.715 15.27L38.484 25.1098C38.8497 25.4801 39.0548 25.9796 39.0548 26.5C39.0548 27.0204 38.8497 27.5199 38.484 27.8901L28.715 37.73C28.5317 37.9127 28.3152 38.0589 28.077 38.1601C27.8384 38.2596 27.5825 38.3105 27.324 38.31C27.0652 38.3188 26.8075 38.2709 26.569 38.1699C26.33 38.0685 26.1125 37.9229 25.928 37.7402Z" fill="#00CC99"/>
</svg>
