<svg width="53" height="53" viewBox="0 0 53 53" fill="none" xmlns="http://www.w3.org/2000/svg">
<path d="M0.906006 26.5C0.905215 31.5622 2.40561 36.5108 5.21743 40.7202C8.02925 44.9297 12.0262 48.2107 16.7028 50.1484C21.3795 52.0862 26.5257 52.594 31.4907 51.6069C36.4557 50.6198 41.0165 48.1823 44.5963 44.603C48.1761 41.0238 50.6141 36.4634 51.6019 31.4985C52.5898 26.5337 52.0832 21.3874 50.1462 16.7104C48.2091 12.0335 44.9287 8.03611 40.7197 5.22363C36.5107 2.41115 31.5622 0.910156 26.5 0.910156C19.7128 0.910421 13.2037 3.60639 8.40402 8.40527C3.60439 13.2042 0.907332 19.7128 0.906006 26.5ZM27.072 15.2598C27.2556 15.4414 27.4015 15.6579 27.5015 15.896C27.6014 16.1341 27.6534 16.3897 27.6544 16.6479C27.6554 16.9062 27.6055 17.162 27.5074 17.4009C27.4094 17.6398 27.2651 17.857 27.083 18.04L20.645 24.5298H37.082C37.6045 24.5298 38.1056 24.7375 38.475 25.1069C38.8445 25.4764 39.052 25.9775 39.052 26.5C39.052 27.0225 38.8445 27.5236 38.475 27.8931C38.1056 28.2625 37.6045 28.4702 37.082 28.4702H20.645L27.083 34.96C27.2659 35.1426 27.4101 35.3604 27.507 35.6001C27.6051 35.8379 27.6551 36.0928 27.654 36.3501C27.6547 36.609 27.6035 36.8652 27.5033 37.104C27.4032 37.3428 27.2562 37.5593 27.071 37.7402C26.8862 37.9225 26.6687 38.068 26.43 38.1699C26.1887 38.2614 25.933 38.309 25.675 38.3101C25.4166 38.3103 25.1606 38.2594 24.922 38.1602C24.6843 38.0586 24.4681 37.9125 24.285 37.73L14.516 27.8901C14.1503 27.5199 13.9453 27.0204 13.9453 26.5C13.9453 25.9796 14.1503 25.4801 14.516 25.1099L24.285 15.27C24.4683 15.0873 24.6848 14.9411 24.923 14.8398C25.1616 14.7404 25.4175 14.6895 25.676 14.6899C25.9349 14.6812 26.1925 14.7291 26.431 14.8301C26.67 14.9315 26.8875 15.0771 27.072 15.2598Z" fill="#D2D2D2"/>
</svg>
