<svg width="24" height="24" viewBox="0 0 24 24" fill="none" xmlns="http://www.w3.org/2000/svg">
<mask id="mask0_3_50" style="mask-type:luminance" maskUnits="userSpaceOnUse" x="0" y="0" width="24" height="24">
<path d="M24 0H0V24H24V0Z" fill="white"/>
</mask>
<g mask="url(#mask0_3_50)">
<path d="M20.45 20.4504H16.89V14.8801C16.89 13.5501 16.87 11.84 15.04 11.84C13.19 11.84 12.91 13.29 12.91 14.78V20.4504H9.34998V9.0002H12.76V10.5603H12.8101C13.1524 9.97632 13.6464 9.49584 14.2397 9.17012C14.8331 8.84439 15.5036 8.68548 16.1801 8.71016C19.7901 8.71016 20.45 11.0801 20.45 14.1701V20.4504ZM5.33997 7.43037C4.93112 7.43136 4.53127 7.3107 4.19092 7.08418C3.85057 6.85766 3.58501 6.53544 3.4281 6.15791C3.27119 5.78038 3.22993 5.36461 3.30945 4.96357C3.38897 4.56254 3.58578 4.19408 3.87488 3.90498C4.16397 3.61588 4.53231 3.41907 4.93335 3.33955C5.33439 3.26003 5.75003 3.30129 6.12756 3.4582C6.5051 3.61512 6.82755 3.88055 7.05408 4.2209C7.2806 4.56125 7.40101 4.96147 7.40002 5.37031C7.40148 5.64124 7.34922 5.90976 7.24622 6.16035C7.14321 6.41094 6.99151 6.63869 6.79993 6.83027C6.60835 7.02185 6.38059 7.17355 6.13 7.27656C5.87942 7.37957 5.6109 7.43183 5.33997 7.43037ZM7.12 20.4504H3.56006V9.0002H7.12V20.4504ZM22.22 0.000195849H1.77002C1.54006 -0.00297486 1.31171 0.0393833 1.09814 0.124708C0.884577 0.210032 0.689982 0.336514 0.525513 0.497266C0.361044 0.658018 0.229953 0.849669 0.139771 1.06123C0.0495876 1.27279 0.00208564 1.5002 0 1.73018V22.2702C0.0058017 22.7342 0.195392 23.1768 0.527222 23.5012C0.859052 23.8255 1.30604 24.005 1.77002 24.0002H22.22C22.4505 24.0036 22.6794 23.9618 22.8937 23.8767C23.1079 23.7916 23.3033 23.6648 23.4686 23.5041C23.6339 23.3434 23.766 23.1519 23.8572 22.9401C23.9484 22.7284 23.9969 22.5007 24 22.2702V1.73018C23.9969 1.49966 23.9484 1.272 23.8572 1.06025C23.766 0.848514 23.6339 0.656965 23.4686 0.49629C23.3033 0.335614 23.1079 0.208839 22.8937 0.123731C22.6794 0.038623 22.4505 -0.00324269 22.22 0.000195849Z" fill="white"/>
</g>
</svg>
