<svg width="20" height="22" viewBox="0 0 20 22" fill="none" xmlns="http://www.w3.org/2000/svg">
<path d="M10 12C10.5933 12 11.1734 11.8241 11.6667 11.4944C12.1601 11.1648 12.5446 10.6963 12.7716 10.1481C12.9987 9.59992 13.0581 8.99671 12.9424 8.41476C12.8266 7.83282 12.5409 7.29825 12.1213 6.87869C11.7017 6.45913 11.1672 6.1734 10.5853 6.05765C10.0033 5.94189 9.40014 6.0013 8.85196 6.22836C8.30378 6.45542 7.83523 6.83999 7.50558 7.33334C7.17594 7.82669 7 8.40668 7 9.00003C7 9.79568 7.31608 10.5588 7.87869 11.1214C8.4413 11.684 9.20435 12 10 12Z" stroke="black" stroke-width="2" stroke-linecap="round" stroke-linejoin="round"/>
<path d="M10 1C7.87831 1 5.84347 1.84285 4.34318 3.34314C2.84289 4.84343 2.00004 6.87827 2.00004 9C1.90909 10.6362 2.44554 12.2456 3.50004 13.5L10 21L16.5 13.5C17.5545 12.2456 18.091 10.6362 18 9C18 6.87827 17.1572 4.84343 15.6569 3.34314C14.1566 1.84285 12.1218 1 10 1Z" stroke="black" stroke-width="2" stroke-linecap="round" stroke-linejoin="round"/>
</svg>
