<svg width="166" height="34" viewBox="0 0 166 34" fill="none" xmlns="http://www.w3.org/2000/svg">
<path d="M18.8593 1.50415V20.4241C18.9391 21.664 18.7584 22.9068 18.3289 24.0727C17.8993 25.2385 17.2305 26.3014 16.3653 27.1931C15.4694 28.0094 14.4204 28.6397 13.279 29.0474C12.1376 29.4551 10.9266 29.6321 9.71631 29.5681C7.13148 29.6929 4.6011 28.7972 2.67031 27.0742C1.75413 26.1466 1.04428 25.036 0.587255 23.815C0.130228 22.594 -0.0636574 21.2903 0.0183081 19.9892H6.7473C6.68351 20.9277 6.93402 21.8608 7.45931 22.6412C7.71177 22.9357 8.02911 23.1676 8.38639 23.3188C8.74366 23.4699 9.13112 23.5361 9.51831 23.5121C9.87428 23.5324 10.2302 23.4716 10.5593 23.3344C10.8884 23.1972 11.1821 22.9872 11.4183 22.7201C11.9097 22.0582 12.1484 21.2425 12.0913 20.4202V1.50415H18.8593Z" fill="black"/>
<path d="M34.3803 29.608C32.3431 29.6382 30.3302 29.1623 28.5223 28.223C26.8195 27.3113 25.4069 25.94 24.4453 24.265C23.4374 22.4227 22.9325 20.3474 22.9813 18.248C22.9344 16.157 23.4526 14.0921 24.4813 12.271C25.4409 10.5703 26.8698 9.18169 28.5973 8.271C30.4158 7.36005 32.4218 6.88574 34.4558 6.88574C36.4897 6.88574 38.4957 7.36005 40.3143 8.271C42.0419 9.18141 43.4708 10.5701 44.4303 12.271C45.424 14.1149 45.9409 16.1779 45.9341 18.2725C45.9273 20.367 45.3969 22.4266 44.3913 24.264C43.4141 25.9546 41.9715 27.3285 40.2353 28.222C38.4283 29.1612 36.4165 29.6374 34.3803 29.608ZM34.3803 23.75C34.9978 23.7595 35.6102 23.6373 36.1768 23.3916C36.7434 23.1459 37.2512 22.7823 37.6663 22.325C38.1541 21.77 38.5275 21.1242 38.7652 20.4246C39.0028 19.7249 39.1001 18.9853 39.0513 18.248C39.1502 16.7656 38.6673 15.3031 37.7053 14.171C37.2999 13.7125 36.7998 13.3477 36.2395 13.1016C35.6792 12.8556 35.0721 12.7342 34.4603 12.746C33.842 12.7313 33.2279 12.8511 32.6605 13.0971C32.0932 13.3432 31.586 13.7096 31.1743 14.171C30.2288 15.3104 29.7608 16.7713 29.8683 18.248C29.7705 19.7171 30.2221 21.1701 31.1353 22.325C31.5406 22.7834 32.0408 23.1481 32.6011 23.394C33.1614 23.6399 33.7685 23.762 34.3803 23.75Z" fill="black"/>
<path d="M56.2983 10.331C56.9673 9.26878 57.9109 8.40707 59.0293 7.837C60.2883 7.1866 61.6895 6.8601 63.1063 6.887C64.8541 6.86637 66.5712 7.34701 68.0543 8.272C69.567 9.23453 70.7749 10.6072 71.5373 12.23C72.4408 14.0904 72.8885 16.1392 72.8433 18.207C72.8853 20.287 72.4379 22.3477 71.5373 24.223C70.7689 25.853 69.5631 27.2377 68.0543 28.223C66.5712 29.148 64.8541 29.6286 63.1063 29.608C61.6935 29.641 60.294 29.3286 59.0293 28.698C57.9213 28.113 56.9812 27.2545 56.2983 26.204V29.291H49.5293V0H56.2983V10.331ZM65.9563 18.208C65.9986 17.4862 65.8941 16.7633 65.6491 16.0831C65.4042 15.4028 65.0239 14.7792 64.5313 14.25C64.0941 13.7754 63.5608 13.3993 62.967 13.1467C62.3732 12.8941 61.7324 12.7708 61.0873 12.785C60.443 12.7761 59.8041 12.9019 59.2112 13.1541C58.6183 13.4064 58.0846 13.7796 57.6443 14.25C56.7455 15.3896 56.2567 16.7986 56.2567 18.25C56.2567 19.7014 56.7455 21.1104 57.6443 22.25C58.0903 22.7131 58.6252 23.0814 59.2168 23.333C59.8085 23.5847 60.4449 23.7143 61.0878 23.7143C61.7307 23.7143 62.3671 23.5847 62.9588 23.333C63.5504 23.0814 64.0853 22.7131 64.5313 22.25C65.5207 21.1433 66.0329 19.6905 65.9563 18.208Z" fill="black"/>
<path d="M103.203 29.2912H96.4353L85.1183 12.1522V29.2912H78.3503V1.50415H85.1183L96.4393 18.7222V1.50415H103.207L103.203 29.2912Z" fill="#00CC99"/>
<path d="M165.018 7.20419L159.041 29.2912H151.56L148.077 14.9622L144.477 29.2912H137.035L131.018 7.20419H137.786L140.913 22.9972L144.634 7.20419H151.799L155.558 22.9142L158.645 7.2002L165.018 7.20419Z" fill="#00CC99"/>
<path d="M107.018 18.58C107.019 20.6442 107.573 22.6706 108.622 24.4479C109.672 26.2253 111.179 27.6887 112.987 28.6857C114.794 29.6826 116.836 30.1767 118.899 30.1165C120.963 30.0562 122.972 29.4438 124.718 28.343L124.728 28.368L129.75 33.39L134.018 29.124L128.818 23.924L128.796 23.929C129.605 22.3781 130.051 20.6636 130.1 18.9152C130.149 17.1667 129.8 15.43 129.079 13.8362C128.359 12.2424 127.285 10.8332 125.94 9.71513C124.595 8.59702 123.013 7.79922 121.315 7.382C119.616 6.96479 117.845 6.93907 116.135 7.30678C114.425 7.6745 112.82 8.42604 111.443 9.50462C110.066 10.5832 108.953 11.9606 108.186 13.5328C107.419 15.105 107.02 16.8309 107.018 18.58ZM112.145 18.58C112.145 17.3115 112.521 16.0714 113.226 15.0167C113.931 13.9619 114.933 13.1398 116.105 12.6543C117.277 12.1689 118.566 12.0418 119.81 12.2892C121.054 12.5366 122.197 13.1474 123.094 14.0443C123.991 14.9412 124.602 16.084 124.85 17.3281C125.098 18.5722 124.971 19.8618 124.485 21.0339C124 22.2059 123.178 23.2077 122.123 23.9126C121.069 24.6175 119.829 24.9938 118.56 24.994C117.718 24.9941 116.884 24.8283 116.105 24.5061C115.327 24.1838 114.62 23.7114 114.024 23.1157C113.429 22.5201 112.956 21.813 112.634 21.0348C112.311 20.2565 112.145 19.4224 112.145 18.58Z" fill="#00CC99"/>
</svg>
