<svg width="198" height="41" viewBox="0 0 198 41" fill="none" xmlns="http://www.w3.org/2000/svg">
<path d="M22.609 1.80029V24.5103C22.609 28.0203 21.6117 30.727 19.617 32.6304C18.5417 33.61 17.2826 34.3662 15.9128 34.8555C14.5429 35.3447 13.0896 35.5573 11.637 35.4805C8.53597 35.6287 5.50041 34.555 3.182 32.4902C1.061 30.4902 0 27.6605 0 23.9805H8.075C7.99829 25.1092 8.29907 26.2313 8.93 27.1704C9.23409 27.5219 9.61512 27.7986 10.0435 27.979C10.4719 28.1594 10.9361 28.2386 11.4 28.2104C11.827 28.2339 12.2539 28.1606 12.6486 27.9961C13.0434 27.8316 13.396 27.58 13.68 27.2603C14.2685 26.4693 14.5548 25.4939 14.487 24.5103V1.80029H22.609Z" fill="black"/>
<path d="M41.235 35.5303C38.7894 35.5649 36.3737 34.9911 34.205 33.8604C32.1595 32.7694 30.4637 31.1228 29.313 29.1104C28.1013 26.9005 27.4949 24.4096 27.555 21.8901C27.5012 19.3813 28.1247 16.9045 29.36 14.7202C30.5123 12.6796 32.2271 11.0136 34.3 9.92041C36.4826 8.82862 38.8895 8.26025 41.33 8.26025C43.7704 8.26025 46.1774 8.82862 48.36 9.92041C50.4327 11.0139 52.1474 12.6798 53.3 14.7202C54.4928 16.9325 55.1133 19.408 55.1049 21.9214C55.0965 24.4347 54.4595 26.9061 53.252 29.1104C52.0824 31.1414 50.3506 32.791 48.265 33.8604C46.0962 34.9909 43.6805 35.5647 41.235 35.5303ZM41.235 28.5C41.9758 28.5114 42.7106 28.3652 43.3903 28.0703C44.07 27.7755 44.6791 27.3387 45.177 26.79C45.7635 26.1232 46.2124 25.3473 46.4978 24.5063C46.7832 23.6654 46.8995 22.7762 46.84 21.8901C46.9576 20.1122 46.3784 18.3582 45.225 17C44.7378 16.4493 44.1366 16.0111 43.4632 15.7158C42.7897 15.4205 42.0601 15.2753 41.325 15.29C40.5831 15.2726 39.8463 15.4167 39.1655 15.7119C38.4847 16.0072 37.8762 16.4465 37.382 17C36.2485 18.3669 35.6871 20.119 35.815 21.8901C35.6967 23.6554 36.2384 25.4016 37.335 26.79C37.8221 27.3409 38.4232 27.7794 39.0967 28.0747C39.7701 28.37 40.4998 28.515 41.235 28.5Z" fill="black"/>
<path d="M67.5361 12.3901C68.3402 11.1174 69.4722 10.0849 70.8131 9.40039C72.324 8.61973 74.0057 8.22779 75.7061 8.26025C77.8025 8.23873 79.8618 8.81466 81.6431 9.92041C83.4562 11.0782 84.9052 12.7248 85.8231 14.6704C86.9077 16.9055 87.4448 19.3663 87.3901 21.8501C87.4401 24.3462 86.9034 26.8195 85.8231 29.0703C84.8976 31.0215 83.451 32.6792 81.6431 33.8604C79.8646 34.9736 77.8041 35.5531 75.7061 35.5303C74.0097 35.5682 72.3299 35.1905 70.8131 34.4302C69.4824 33.731 68.354 32.7016 67.5361 31.4404V35.1504H59.4141V0H67.5361V12.3901ZM79.1261 21.8501C79.1771 20.9839 79.0519 20.1163 78.758 19.2998C78.464 18.4834 78.0075 17.735 77.4161 17.1001C76.8911 16.5307 76.2512 16.0798 75.5387 15.7764C74.8262 15.4729 74.0573 15.3242 73.2831 15.3403C72.5098 15.3303 71.743 15.4816 71.0315 15.7847C70.3201 16.0877 69.6796 16.5356 69.1511 17.1001C68.074 18.4663 67.4883 20.1553 67.4883 21.895C67.4883 23.6347 68.074 25.3242 69.1511 26.6904C69.6859 27.2469 70.3277 27.6893 71.0378 27.9917C71.7479 28.2941 72.5117 28.4502 73.2836 28.4502C74.0554 28.4502 74.8192 28.2941 75.5294 27.9917C76.2395 27.6893 76.8812 27.2469 77.4161 26.6904C78.6013 25.3653 79.2158 23.6257 79.1261 21.8501Z" fill="black"/>
<path d="M123.823 35.1504H115.7L102.116 14.5801V35.1504H93.9929V1.80029H102.116L115.7 22.4604V1.80029H123.823V35.1504Z" fill="white"/>
<path d="M198 8.64014L190.828 35.1504H181.85L177.671 17.9502L173.348 35.1504H164.418L157.2 8.64014H165.322L169.074 27.5903L173.539 8.64014H182.139L186.652 27.5L190.352 8.64014H198Z" fill="white"/>
<path d="M128.4 22.2899C128.402 24.7669 129.067 27.1984 130.327 29.331C131.587 31.4635 133.395 33.2193 135.564 34.4159C137.733 35.6125 140.182 36.206 142.658 36.1347C145.134 36.0633 147.546 35.3297 149.642 34.0102C149.647 34.0202 149.65 34.0299 149.655 34.0399L155.681 40.06L160.8 34.9501L154.555 28.7001C154.546 28.7001 154.538 28.7104 154.529 28.7104C155.502 26.8491 156.04 24.7908 156.1 22.6913C156.161 20.5918 155.743 18.5056 154.879 16.5912C154.015 14.6768 152.727 12.9842 151.112 11.641C149.497 10.2978 147.598 9.33945 145.558 8.83828C143.519 8.33711 141.392 8.30602 139.338 8.74795C137.285 9.18988 135.359 10.0932 133.706 11.3891C132.053 12.685 130.716 14.3398 129.797 16.2284C128.878 18.117 128.4 20.1895 128.4 22.2899ZM134.553 22.2899C134.553 20.767 135.005 19.2784 135.851 18.0121C136.697 16.7459 137.899 15.759 139.306 15.1762C140.713 14.5934 142.262 14.4411 143.755 14.7382C145.249 15.0353 146.621 15.7687 147.698 16.8456C148.775 17.9225 149.508 19.2943 149.805 20.788C150.102 22.2816 149.95 23.8297 149.367 25.2367C148.784 26.6437 147.797 27.8462 146.531 28.6923C145.265 29.5384 143.776 29.9901 142.253 29.9901C141.242 29.9912 140.24 29.7927 139.305 29.4062C138.37 29.0196 137.521 28.4524 136.806 27.7372C136.091 27.022 135.524 26.1729 135.137 25.2382C134.75 24.3035 134.552 23.3014 134.553 22.2899Z" fill="white"/>
</svg>
