<svg width="87" height="87" viewBox="0 0 87 87" fill="none" xmlns="http://www.w3.org/2000/svg">
<path d="M76.8865 9.14855L20.4203 1.36546C14.9492 0.611335 9.90267 4.43522 9.14855 9.90634L1.36546 66.3725C0.611336 71.8436 4.43522 76.8901 9.90634 77.6443L66.3725 85.4274C71.8436 86.1815 76.8901 82.3576 77.6443 76.8865L85.4274 20.4203C86.1815 14.9492 82.3576 9.90267 76.8865 9.14855Z" fill="white"/>
<path d="M55.216 64.7139L26.2661 60.7239C25.6326 60.6481 25.0209 60.4453 24.4676 60.1276C23.9143 59.8099 23.4309 59.3838 23.0461 58.8749C22.6489 58.3875 22.3582 57.8222 22.1928 57.2156C22.0275 56.609 21.9911 55.9744 22.086 55.3529L25.976 27.1199C26.0548 26.4959 26.2627 25.8952 26.5864 25.356C26.91 24.8168 27.3424 24.3509 27.856 23.9879C28.3639 23.6016 28.9445 23.322 29.5632 23.1658C30.1818 23.0096 30.8256 22.98 31.456 23.0789L60.3961 27.0699C61.031 27.1454 61.6442 27.348 62.1992 27.6657C62.7541 27.9834 63.2394 28.4096 63.626 28.9189C64.0196 29.408 64.3074 29.9735 64.4709 30.5796C64.6344 31.1857 64.6701 31.8192 64.576 32.4399L60.6861 60.6729C60.6093 61.2963 60.4032 61.8968 60.0812 62.4361C59.7593 62.9753 59.3284 63.4415 58.8161 63.8049C58.3078 64.1903 57.727 64.4694 57.1085 64.6256C56.49 64.7817 55.8464 64.8118 55.216 64.7139ZM34.956 51.1339C34.9815 50.9791 34.9732 50.8205 34.9318 50.6692C34.8904 50.5178 34.8168 50.3772 34.716 50.2569C34.6208 50.1294 34.5009 50.0225 34.3635 49.9424C34.226 49.8623 34.0739 49.8108 33.9161 49.7909L31.506 49.4589C31.3481 49.4352 31.187 49.4435 31.0324 49.4833C30.8778 49.5232 30.7328 49.5938 30.606 49.6909C30.4774 49.7803 30.369 49.8957 30.288 50.0298C30.207 50.1638 30.1553 50.3135 30.136 50.4689L29.486 55.1739C29.4654 55.3287 29.4761 55.486 29.5173 55.6367C29.5585 55.7873 29.6295 55.9281 29.726 56.0509C29.9204 56.3061 30.2082 56.4738 30.5261 56.5169L32.946 56.8489C33.1023 56.872 33.2617 56.8634 33.4146 56.8235C33.5675 56.7836 33.7108 56.7134 33.836 56.6169C33.9645 56.5264 34.0733 56.4108 34.1558 56.2771C34.2383 56.1434 34.2928 55.9943 34.3161 55.8389L34.956 51.1339ZM45.9061 43.0529C45.9267 42.8981 45.916 42.7407 45.8748 42.5901C45.8336 42.4395 45.7626 42.2986 45.6661 42.1759C45.4717 41.9206 45.1839 41.753 44.866 41.7099L42.446 41.3779C42.2897 41.3548 42.1304 41.3634 41.9775 41.4033C41.8246 41.4431 41.6812 41.5134 41.5561 41.6099C41.4275 41.6993 41.3191 41.8147 41.2381 41.9488C41.1571 42.0828 41.1052 42.2325 41.086 42.3879L39.136 56.5039C39.1154 56.6587 39.1261 56.8161 39.1673 56.9667C39.2085 57.1173 39.2795 57.2582 39.376 57.3809C39.5704 57.6361 39.8582 57.8038 40.1761 57.8469L42.596 58.1789C42.7523 58.202 42.9117 58.1934 43.0646 58.1535C43.2175 58.1137 43.3609 58.0434 43.486 57.9469C43.6147 57.8575 43.723 57.7421 43.804 57.608C43.885 57.474 43.9367 57.3243 43.956 57.1689L45.9061 43.0529ZM57.1761 32.6189C57.1991 32.4642 57.1896 32.3064 57.1483 32.1556C57.1069 32.0048 57.0347 31.8643 56.9361 31.7429C56.7419 31.4874 56.4541 31.3194 56.136 31.2759L53.716 30.9439C53.5597 30.9208 53.4003 30.9294 53.2474 30.9693C53.0945 31.0091 52.9511 31.0794 52.826 31.1759C52.6974 31.2653 52.5891 31.3808 52.5081 31.5148C52.4271 31.6489 52.3753 31.7985 52.356 31.9539L48.7861 57.8339C48.7654 57.9887 48.776 58.1461 48.8172 58.2967C48.8584 58.4473 48.9295 58.5882 49.0261 58.7109C49.1221 58.8374 49.2423 58.9438 49.3796 59.0237C49.5169 59.1037 49.6685 59.1557 49.826 59.1769L52.246 59.5099C52.4024 59.5328 52.5619 59.524 52.7148 59.484C52.8677 59.4439 53.0109 59.3735 53.136 59.2769C53.2647 59.1875 53.3731 59.0721 53.454 58.938C53.535 58.8039 53.5868 58.6543 53.606 58.4989L57.1761 32.6189Z" fill="#00CC99"/>
</svg>
