<svg width="87" height="86" viewBox="0 0 87 86" fill="none" xmlns="http://www.w3.org/2000/svg">
<path d="M67.5802 1.11182L10.9339 7.4517C5.44534 8.06599 1.49395 13.0133 2.10823 18.5019L8.44812 75.1482C9.06241 80.6368 14.0098 84.5882 19.4983 83.9739L76.1447 77.634C81.6332 77.0198 85.5846 72.0724 84.9703 66.5838L78.6305 9.93751C78.0162 4.44893 73.0688 0.497531 67.5802 1.11182Z" fill="white"/>
<path d="M59.735 29.9641C59.6642 29.6339 59.511 29.3271 59.2896 29.0722C59.0682 28.8172 58.7859 28.6225 58.469 28.5061L41.678 22.3351C41.3863 22.2279 41.0737 22.1902 40.7649 22.2249C40.4561 22.2596 40.1596 22.3658 39.899 22.5351L24.888 32.2651C24.6057 32.4492 24.3744 32.7015 24.2153 32.9986C24.0563 33.2957 23.9747 33.6281 23.978 33.9651C23.978 34.1811 24.463 55.5801 44.389 61.8961C44.6553 61.9825 44.9371 62.0112 45.2154 61.9801C45.4937 61.9491 45.7622 61.8591 46.003 61.7161C64.04 51.1511 59.781 30.1771 59.735 29.9641ZM44.748 57.8001L42.991 42.1001L30.091 43.5441C29.0029 40.8047 28.3119 37.9239 28.039 34.9891L41.239 26.4341L42.993 42.1001L55.833 40.6631C55.3556 44.1578 54.115 47.5047 52.1993 50.4663C50.2836 53.4279 47.7396 55.9317 44.748 57.8001Z" fill="#00CC99"/>
</svg>
