<svg width="19" height="19" viewBox="0 0 19 19" fill="none" xmlns="http://www.w3.org/2000/svg">
<path d="M17.5 17.5L13.762 13.755M15.833 8.74995C15.8326 10.3881 15.2642 11.9754 14.2246 13.2415C13.1851 14.5075 11.7388 15.374 10.132 15.6932C8.52529 16.0125 6.85758 15.7648 5.413 14.9923C3.96842 14.2199 2.83634 12.9705 2.20966 11.4569C1.58297 9.94339 1.50045 8.25934 1.97614 6.69178C2.45182 5.12423 3.45628 3.7701 4.81841 2.86009C6.18053 1.95008 7.81604 1.54051 9.44629 1.70112C11.0765 1.86174 12.6007 2.58261 13.759 3.74095C15.0871 5.06962 15.8331 6.87135 15.833 8.74995Z" stroke="black" stroke-width="2" stroke-linecap="round"/>
</svg>
