<svg width="82" height="83" viewBox="0 0 82 83" fill="none" xmlns="http://www.w3.org/2000/svg">
<path d="M66.865 1.62397L9.97902 5.21497C4.46722 5.56291 0.281084 10.3132 0.629023 15.825L4.22002 72.711C4.56796 78.2228 9.31822 82.4089 14.83 82.061L71.716 78.47C77.2278 78.122 81.414 73.3718 81.066 67.86L77.475 10.974C77.1271 5.46217 72.3768 1.27603 66.865 1.62397Z" fill="white"/>
<path d="M57.2 50.959L56.139 34.118L24.7 36.1L25.049 41.642C26.8739 40.5881 28.9821 40.1298 31.0798 40.3311C33.1775 40.5323 35.1601 41.3831 36.7513 42.7648C38.3425 44.1465 39.4629 45.9902 39.9563 48.039C40.4498 50.0877 40.2917 52.2394 39.5041 54.194L43.2281 57.477L51.938 56.928C52.6753 56.8817 53.3963 56.6905 54.0597 56.3655C54.7231 56.0405 55.3159 55.5879 55.8044 55.0337C56.2929 54.4795 56.6673 53.8345 56.9065 53.1355C57.1456 52.4365 57.2447 51.6973 57.198 50.96L57.2 50.959ZM55.927 30.749C55.8807 30.0117 55.6896 29.2908 55.3645 28.6274C55.0395 27.964 54.587 27.3711 54.0327 26.8826C53.4785 26.3942 52.8335 26.0197 52.1345 25.7806C51.4355 25.5414 50.6963 25.4424 49.959 25.489L29.7491 26.763C29.0118 26.8093 28.291 27.0005 27.6277 27.3254C26.9643 27.6504 26.3715 28.1029 25.883 28.657C25.3946 29.2111 25.02 29.856 24.7808 30.5548C24.5417 31.2537 24.4425 31.9928 24.489 32.73L24.56 33.853L56 31.872L55.927 30.749ZM35.216 56.409C33.6999 57.6991 31.7514 58.3671 29.7626 58.2785C27.7738 58.1898 25.8924 57.3512 24.4971 55.9313C23.1018 54.5114 22.296 52.6157 22.2421 50.6257C22.1881 48.6357 22.89 46.6991 24.2063 45.2057C25.5227 43.7123 27.3558 42.7729 29.3369 42.5766C31.3179 42.3804 33.2998 42.9418 34.8836 44.1478C36.4674 45.3539 37.5356 47.1151 37.8731 49.077C38.2107 51.039 37.7926 53.0559 36.703 54.722L42.79 60.087C43.0043 60.2868 43.1323 60.5623 43.1468 60.855C43.1612 61.1476 43.061 61.4343 42.8675 61.6543C42.6739 61.8743 42.4022 62.0102 42.1101 62.0331C41.818 62.056 41.5285 61.9641 41.303 61.777L35.216 56.412V56.409ZM35.726 50.058C35.6443 48.7589 35.1146 47.5284 34.2273 46.5761C33.3399 45.6237 32.1498 45.0086 30.8597 44.8354C29.5696 44.6622 28.2594 44.9417 27.1523 45.6262C26.0452 46.3108 25.2097 47.358 24.7882 48.5896C24.3667 49.8211 24.3854 51.1607 24.8408 52.38C25.2963 53.5994 26.1605 54.6231 27.2862 55.2767C28.4118 55.9303 29.7293 56.1733 31.0141 55.9644C32.2988 55.7555 33.4714 55.1076 34.332 54.131C35.3184 53.0119 35.8198 51.5468 35.726 50.058Z" fill="#00CC99"/>
</svg>
