<svg width="25" height="21" viewBox="0 0 25 21" fill="none" xmlns="http://www.w3.org/2000/svg">
<mask id="mask0_3_45" style="mask-type:luminance" maskUnits="userSpaceOnUse" x="0" y="0" width="25" height="21">
<path d="M25 0H0V21H25V0Z" fill="white"/>
</mask>
<g mask="url(#mask0_3_45)">
<path d="M25 2.56006C24.0645 2.98491 23.0698 3.26487 22.05 3.39014C23.1295 2.71964 23.9317 1.68328 24.3101 0.470215C23.3055 1.08204 22.2025 1.51491 21.05 1.75C20.5784 1.22516 20.0017 0.805269 19.3574 0.517578C18.7131 0.229887 18.0157 0.0808972 17.3101 0.0800781C16.5289 0.107112 15.7632 0.306225 15.0677 0.663086C14.3723 1.01995 13.7641 1.52567 13.2866 2.14453C12.8091 2.76339 12.474 3.47994 12.3052 4.24316C12.1364 5.00638 12.1381 5.79755 12.3101 6.56006C10.2575 6.4471 8.25268 5.89701 6.42981 4.94678C4.60694 3.99654 3.00799 2.66782 1.73999 1.0498C1.28468 1.8586 1.047 2.77205 1.05005 3.7002C1.04383 4.56229 1.24827 5.41265 1.64563 6.17773C2.04299 6.94282 2.62113 7.59911 3.32996 8.08984C2.51053 8.06673 1.70981 7.84024 1 7.43018V7.5C0.987147 8.7042 1.38998 9.87608 2.1405 10.8179C2.89102 11.7597 3.94331 12.4137 5.12 12.6699C4.36569 12.8877 3.5703 12.9221 2.80005 12.77C3.11353 13.8055 3.74471 14.7162 4.60437 15.373C5.46403 16.0299 6.50851 16.3998 7.58997 16.4302C5.7909 17.8958 3.54043 18.694 1.21997 18.6899C0.809971 18.6899 0.4 18.6601 0 18.6201C2.33187 20.1617 5.0646 20.9859 7.85999 20.9902C17.3 20.9902 22.46 12.9502 22.46 5.97021C22.46 5.74021 22.4499 5.52004 22.4399 5.29004C23.4465 4.53695 24.3131 3.61293 25 2.56006Z" fill="white"/>
</g>
</svg>
